<svg width="47" height="22" viewBox="0 0 47 22" fill="none" xmlns="http://www.w3.org/2000/svg">
<path d="M23.217 0C10.8355 0 0.899357 9.28612 0.481923 9.71947C0.174111 10.0117 0 10.4173 0 10.8416C0 11.2658 0.174119 11.6717 0.481923 11.9637C0.899595 12.3817 10.8355 21.6681 23.217 21.6681C35.5985 21.6681 45.5346 12.382 45.9521 11.9487C46.2599 11.6564 46.434 11.2508 46.434 10.8266C46.434 10.4023 46.2599 9.9964 45.9521 9.70444C45.5344 9.28642 35.5985 0 23.217 0ZM30.9554 10.8338C30.9554 12.8862 30.1401 14.8543 28.6888 16.3056C27.2375 17.7569 25.2694 18.5722 23.217 18.5722C21.1646 18.5722 19.1965 17.7569 17.7452 16.3056C16.2939 14.8543 15.4786 12.8862 15.4786 10.8338C15.4786 8.7814 16.2939 6.81327 17.7452 5.36198C19.1965 3.91069 21.1646 3.09537 23.217 3.09537C25.2694 3.09537 27.2375 3.91068 28.6888 5.36198C30.1401 6.81329 30.9554 8.7814 30.9554 10.8338ZM14.1785 4.87521C13.0101 6.64577 12.3876 8.72029 12.3876 10.8414C12.3876 12.9629 13.0101 15.0374 14.1785 16.808C10.4731 15.3525 7.01254 13.3378 3.9169 10.8338C7.01334 8.3354 10.4739 6.32615 14.1785 4.87521ZM32.2405 16.8083H32.2401C33.4085 15.0378 34.031 12.9632 34.031 10.8418C34.031 8.72064 33.4085 6.64612 32.2401 4.87557C35.95 6.32482 39.4162 8.33434 42.5167 10.8342C39.4203 13.3326 35.9598 15.3418 32.2551 16.7928L32.2405 16.8083Z" fill="#044223"/>
<path d="M26.3124 10.8337C26.3124 12.543 24.9264 13.929 23.217 13.929C21.5076 13.929 20.1216 12.543 20.1216 10.8337C20.1216 9.1243 21.5076 7.73828 23.217 7.73828C24.9264 7.73828 26.3124 9.1243 26.3124 10.8337Z" fill="#044223"/>
</svg>
