<?xml version="1.0" encoding="UTF-8"?><svg id="Camada_1" xmlns="http://www.w3.org/2000/svg" viewBox="0 0 330.21 144.37"><defs><style>.cls-1{fill:#154424;}</style></defs><g><path class="cls-1" d="M316.11,128.5l-9.5-22.61c12.81-4.58,22.02-16.81,22.02-31.18v-16.32h-66.28v16.32c0,16.4,11.99,30.02,27.66,32.65l8.88,21.15h-15.56v15.87h46.88v-15.87h-14.1Zm-37.89-53.79v-.45h34.54v.45c0,9.52-7.75,17.27-17.27,17.27s-17.27-7.75-17.27-17.27Z"/><path class="cls-1" d="M317.9,0l-11.22,11.22c4.69,4.69,6.29,11.3,4.83,17.32-6.21-8.68-16.36-14.37-27.82-14.37v15.87c10.12,0,18.36,8.24,18.36,18.36h15.87c13.33-13.36,13.33-35.07-.01-48.41Z"/></g><g><path class="cls-1" d="M51.13,144.37c-22.45,0-42.32-15.1-48.33-36.72l-2.8-10.06H102.25l-2.79,10.06c-6.01,21.62-25.88,36.72-48.33,36.72Zm-28.37-30.91c6.26,9.19,16.82,15.04,28.37,15.04s22.1-5.85,28.37-15.04H22.76Z"/><path class="cls-1" d="M70.83,55.15c0,7.22-4.2,13.46-10.28,16.45,.74-2.83,1.16-5.75,1.16-8.75,0-9.14-3.56-17.74-10.02-24.2l-11.23,11.23c3.46,3.46,5.37,8.07,5.37,12.97,0,3.29-.88,6.43-2.49,9.2-4.1-14.31-17.27-24.83-32.88-24.83v15.88c10.12,0,18.35,8.23,18.35,18.35v7.94h23.67c18.87,0,34.23-15.35,34.23-34.23h-15.88Z"/></g><g><path class="cls-1" d="M181.05,144.37c-22.45,0-42.32-15.1-48.33-36.72l15.29-4.25c4.11,14.78,17.69,25.1,33.04,25.1s28.94-10.32,33.04-25.1l15.29,4.25c-6.01,21.62-25.88,36.72-48.33,36.72Z"/><circle class="cls-1" cx="181.49" cy="75.5" r="10.67"/><circle class="cls-1" cx="167.92" cy="101.35" r="10.67"/><circle class="cls-1" cx="195.06" cy="101.35" r="10.67"/></g></svg>