<svg width="349" height="35" viewBox="0 0 349 35" fill="none" xmlns="http://www.w3.org/2000/svg">
<path d="M111.44 35C101.089 35 91.3691 31.0054 84.079 23.7864C75.9627 15.7974 62.7918 15.7974 54.7241 23.7864C47.4341 31.0054 37.7134 35 27.3615 35C17.0096 35 7.29007 31.0054 0 23.7864L12.684 11.2255C16.6207 15.1237 21.821 17.2413 27.3615 17.2413C32.9019 17.2413 38.1023 15.1237 42.0389 11.2255C57.1536 -3.74183 81.6969 -3.74183 96.763 11.2255C100.7 15.1237 105.9 17.2413 111.44 17.2413C116.981 17.2413 122.181 15.1237 126.118 11.2255C141.233 -3.74183 165.776 -3.74183 180.842 11.2255C184.779 15.1237 189.979 17.2413 195.519 17.2413C201.06 17.2413 206.26 15.1237 210.197 11.2255C225.312 -3.74183 249.855 -3.74183 264.921 11.2255C268.858 15.1237 274.058 17.2413 279.598 17.2413C285.139 17.2413 290.339 15.1237 294.276 11.2255C309.391 -3.74183 333.934 -3.74183 349 11.2255L336.315 23.7864C328.198 15.7974 315.028 15.7974 306.96 23.7864C299.67 31.0054 289.95 35 279.598 35C269.247 35 259.526 31.0054 252.236 23.7864C244.12 15.7974 230.949 15.7974 222.881 23.7864C215.591 31.0054 205.871 35 195.519 35C185.168 35 175.447 31.0054 168.157 23.7864C160.041 15.7974 146.871 15.7974 138.803 23.7864C131.513 31.0054 121.792 35 111.44 35Z" fill="#044223"/>
</svg>
