<svg width="89" height="59" viewBox="0 0 89 59" fill="none" xmlns="http://www.w3.org/2000/svg">
<path d="M70.5018 39.7752C70.5018 31.3644 65.597 24.1137 58.4886 20.6334C59.3616 23.9065 59.8597 27.3455 59.8597 30.8259C59.8597 41.4741 55.7035 51.4593 48.1378 59L35.0428 45.9489C39.0751 41.9299 41.3199 36.5436 41.3199 30.8673C41.3199 27.0555 40.2808 23.368 38.4102 20.1777C33.6297 36.8336 18.249 49.0563 0 49.0563V30.5773C11.8057 30.5773 21.4079 21.0063 21.4079 9.23939V-3.8147e-06H49.0522C71.0841 -3.8147e-06 89 17.8574 89 39.8167H70.4602L70.5018 39.7752Z" fill="#FFF0D5"/>
</svg>
