<svg width="288" height="31" viewBox="0 0 288 31" fill="none" xmlns="http://www.w3.org/2000/svg">
<path d="M92.3237 1C83.8405 1 75.8755 4.3098 69.9014 10.2912C63.2502 16.9107 52.4569 16.9107 45.8456 10.2912C39.8715 4.3098 31.9055 1 23.4223 1C14.9391 1 6.97409 4.3098 1 10.2912L11.3944 20.6989C14.6204 17.4689 18.882 15.7143 23.4223 15.7143C27.9626 15.7143 32.2242 17.4689 35.4502 20.6989C47.8365 33.1004 67.9493 33.1004 80.2958 20.6989C83.5218 17.4689 87.7834 15.7143 92.3237 15.7143C96.864 15.7143 101.126 17.4689 104.352 20.6989C116.738 33.1004 136.851 33.1004 149.197 20.6989C152.423 17.4689 156.685 15.7143 161.225 15.7143C165.765 15.7143 170.027 17.4689 173.253 20.6989C185.639 33.1004 205.752 33.1004 218.099 20.6989C221.325 17.4689 225.586 15.7143 230.127 15.7143C234.667 15.7143 238.928 17.4689 242.154 20.6989C254.541 33.1004 274.654 33.1004 287 20.6989L276.605 10.2912C269.953 16.9107 259.16 16.9107 252.549 10.2912C246.575 4.3098 238.61 1 230.127 1C221.643 1 213.677 4.3098 207.703 10.2912C201.052 16.9107 190.259 16.9107 183.647 10.2912C177.673 4.3098 169.708 1 161.225 1C152.742 1 144.776 4.3098 138.802 10.2912C132.151 16.9107 121.358 16.9107 114.747 10.2912C108.773 4.3098 100.807 1 92.3237 1Z" stroke="#044223" stroke-miterlimit="10"/>
</svg>
