<svg width="712" height="31" viewBox="0 0 712 31" fill="none" xmlns="http://www.w3.org/2000/svg">
<path d="M362.76 20.6989C347.186 33.1004 321.816 33.1004 306.192 20.6989C302.123 17.4689 296.747 15.7143 291.02 15.7143C285.293 15.7143 279.917 17.4689 275.848 20.6989C260.274 33.1004 234.904 33.1004 219.28 20.6989C215.21 17.4689 209.835 15.7143 204.108 15.7143C198.381 15.7143 193.005 17.4689 188.936 20.6989C173.362 33.1004 147.992 33.1004 132.368 20.6989C128.298 17.4689 122.923 15.7143 117.196 15.7143C111.468 15.7143 106.093 17.4689 102.024 20.6989C86.4498 33.1004 61.0795 33.1004 45.4555 20.6989C41.3862 17.4689 36.0106 15.7143 30.2835 15.7143C24.5563 15.7143 19.1807 17.4689 15.1115 20.6989L2 10.2912C9.53571 4.3098 19.5827 1 30.2835 1C40.9842 1 51.0324 4.3098 58.5681 10.2912C66.9077 16.9107 80.5224 16.9107 88.9121 10.2912C96.4479 4.3098 106.495 1 117.196 1C127.896 1 137.945 4.3098 145.48 10.2912C153.82 16.9107 167.433 16.9107 175.823 10.2912C183.359 4.3098 193.407 1 204.108 1C214.808 1 224.855 4.3098 232.391 10.2912C240.731 16.9107 254.345 16.9107 262.735 10.2912C270.271 4.3098 280.319 1 291.02 1C301.721 1 311.768 4.3098 319.303 10.2912C327.643 16.9107 341.258 16.9107 349.647 10.2912" stroke="#044223" stroke-width="1.5" stroke-miterlimit="10"/>
<path d="M350 10.2912C357.536 4.3098 367.583 1 378.283 1C388.984 1 399.032 4.3098 406.568 10.2912C414.908 16.9107 428.522 16.9107 436.912 10.2912C444.448 4.3098 454.495 1 465.196 1C475.896 1 485.945 4.3098 493.48 10.2912C501.82 16.9107 515.433 16.9107 523.823 10.2912C531.359 4.3098 541.407 1 552.108 1C562.808 1 572.855 4.3098 580.391 10.2912C588.731 16.9107 602.345 16.9107 610.735 10.2912C618.271 4.3098 628.319 1 639.02 1C649.721 1 659.768 4.3098 667.303 10.2912C675.643 16.9107 689.258 16.9107 697.647 10.2912L710.76 20.6989C695.186 33.1004 669.816 33.1004 654.192 20.6989C650.123 17.4689 644.747 15.7143 639.02 15.7143C633.293 15.7143 627.917 17.4689 623.848 20.6989C608.274 33.1004 582.904 33.1004 567.28 20.6989C563.21 17.4689 557.835 15.7143 552.108 15.7143C546.381 15.7143 541.005 17.4689 536.936 20.6989C521.362 33.1004 495.992 33.1004 480.368 20.6989C476.298 17.4689 470.923 15.7143 465.196 15.7143C459.468 15.7143 454.093 17.4689 450.024 20.6989C434.45 33.1004 409.08 33.1004 393.455 20.6989C389.386 17.4689 384.011 15.7143 378.283 15.7143" stroke="#044223" stroke-width="1.5" stroke-miterlimit="10"/>
<path d="M362.76 20.72C367.946 16.8475 371.278 15.5139 378.42 15.5" stroke="#044223" stroke-width="1.5"/>
<path d="M349.42 10.86L350.58 9.69995" stroke="#044223" stroke-width="1.5"/>
</svg>
