<svg width="660" height="660" viewBox="0 0 660 660" fill="none" xmlns="http://www.w3.org/2000/svg">
<circle cx="330" cy="330" r="330" fill="#CFD4D1"/>
<path d="M71.4844 303.281H85.8281V352.031C85.8281 356.719 84.75 360.688 82.5938 363.938C80.4375 367.219 77.4219 369.703 73.5469 371.391C69.7031 373.109 65.2031 373.969 60.0469 373.969C57.7656 373.969 55.4375 373.672 53.0625 373.078C50.6875 372.516 48.4688 371.672 46.4062 370.547C44.3438 369.422 42.6094 368.031 41.2031 366.375L47.8125 357.094C49.0938 358.531 50.7031 359.75 52.6406 360.75C54.5781 361.781 56.8594 362.297 59.4844 362.297C61.7656 362.297 63.6719 361.891 65.2031 361.078C66.7656 360.266 67.9531 359.078 68.7656 357.516C69.5781 355.984 69.9844 354.125 69.9844 351.938V315.281L71.4844 303.281ZM37.7812 329.25V328.266C37.7812 324.422 38.25 320.922 39.1875 317.766C40.1562 314.578 41.5312 311.844 43.3125 309.562C45.125 307.25 47.3125 305.469 49.875 304.219C52.4375 302.969 55.3281 302.344 58.5469 302.344C62.0156 302.344 64.8594 303.016 67.0781 304.359C69.3281 305.672 71.125 307.516 72.4688 309.891C73.8438 312.266 74.9062 315.047 75.6562 318.234C76.4375 321.391 77.0938 324.797 77.625 328.453V329.625C77.0938 333.062 76.3594 336.312 75.4219 339.375C74.5156 342.406 73.3281 345.094 71.8594 347.438C70.3906 349.781 68.5469 351.625 66.3281 352.969C64.1406 354.281 61.5156 354.938 58.4531 354.938C55.2656 354.938 52.3906 354.297 49.8281 353.016C47.2969 351.734 45.125 349.938 43.3125 347.625C41.5312 345.312 40.1562 342.594 39.1875 339.469C38.25 336.344 37.7812 332.938 37.7812 329.25ZM53.5781 328.266V329.25C53.5781 331.156 53.75 332.922 54.0938 334.547C54.4688 336.172 55.0312 337.609 55.7812 338.859C56.5312 340.078 57.4531 341.031 58.5469 341.719C59.6719 342.406 60.9844 342.75 62.4844 342.75C64.7656 342.75 66.6094 342.266 68.0156 341.297C69.4219 340.328 70.4375 338.953 71.0625 337.172C71.6875 335.391 71.9531 333.297 71.8594 330.891V327.188C71.9219 325.125 71.7812 323.312 71.4375 321.75C71.0938 320.156 70.5469 318.828 69.7969 317.766C69.0781 316.703 68.1094 315.906 66.8906 315.375C65.7031 314.812 64.2656 314.531 62.5781 314.531C61.1094 314.531 59.8125 314.875 58.6875 315.562C57.5625 316.25 56.625 317.219 55.875 318.469C55.125 319.688 54.5469 321.141 54.1406 322.828C53.7656 324.484 53.5781 326.297 53.5781 328.266ZM124.547 341.672V303.281H140.391V354H125.578L124.547 341.672ZM126.047 331.359L130.172 331.266C130.172 334.672 129.766 337.828 128.953 340.734C128.141 343.609 126.938 346.109 125.344 348.234C123.781 350.359 121.844 352.016 119.531 353.203C117.25 354.359 114.609 354.938 111.609 354.938C109.109 354.938 106.812 354.594 104.719 353.906C102.656 353.188 100.875 352.078 99.375 350.578C97.875 349.047 96.7031 347.094 95.8594 344.719C95.0469 342.312 94.6406 339.438 94.6406 336.094V303.281H110.438V336.188C110.438 337.312 110.578 338.281 110.859 339.094C111.141 339.906 111.547 340.594 112.078 341.156C112.609 341.688 113.266 342.094 114.047 342.375C114.859 342.625 115.781 342.75 116.812 342.75C119.188 342.75 121.047 342.25 122.391 341.25C123.734 340.25 124.672 338.891 125.203 337.172C125.766 335.453 126.047 333.516 126.047 331.359ZM175.453 341.25V320.344C175.453 318.906 175.25 317.672 174.844 316.641C174.438 315.609 173.797 314.812 172.922 314.25C172.047 313.656 170.875 313.359 169.406 313.359C168.219 313.359 167.203 313.562 166.359 313.969C165.516 314.375 164.875 314.984 164.438 315.797C164 316.609 163.781 317.641 163.781 318.891H147.984C147.984 316.547 148.5 314.375 149.531 312.375C150.594 310.344 152.094 308.578 154.031 307.078C156 305.578 158.344 304.422 161.062 303.609C163.812 302.766 166.875 302.344 170.25 302.344C174.281 302.344 177.875 303.016 181.031 304.359C184.219 305.703 186.734 307.719 188.578 310.406C190.422 313.062 191.344 316.406 191.344 320.438V341.203C191.344 344.516 191.531 347.031 191.906 348.75C192.281 350.438 192.812 351.922 193.5 353.203V354H177.656C176.906 352.438 176.344 350.531 175.969 348.281C175.625 346 175.453 343.656 175.453 341.25ZM177.375 323.016L177.469 331.453H170.484C169.016 331.453 167.766 331.656 166.734 332.062C165.734 332.469 164.922 333.031 164.297 333.75C163.703 334.438 163.266 335.219 162.984 336.094C162.734 336.969 162.609 337.891 162.609 338.859C162.609 339.797 162.828 340.641 163.266 341.391C163.734 342.109 164.359 342.672 165.141 343.078C165.922 343.484 166.797 343.688 167.766 343.688C169.516 343.688 171 343.359 172.219 342.703C173.469 342.016 174.422 341.188 175.078 340.219C175.734 339.25 176.062 338.344 176.062 337.5L179.531 343.969C178.906 345.219 178.188 346.484 177.375 347.766C176.594 349.047 175.609 350.234 174.422 351.328C173.266 352.391 171.844 353.266 170.156 353.953C168.469 354.609 166.422 354.938 164.016 354.938C160.891 354.938 158.016 354.297 155.391 353.016C152.797 351.734 150.719 349.953 149.156 347.672C147.594 345.359 146.812 342.703 146.812 339.703C146.812 337.078 147.281 334.734 148.219 332.672C149.188 330.609 150.641 328.859 152.578 327.422C154.516 325.984 156.984 324.891 159.984 324.141C162.984 323.391 166.516 323.016 170.578 323.016H177.375ZM201.281 303.281H217.125V355.641C217.125 359.703 216.344 363.125 214.781 365.906C213.219 368.719 210.984 370.844 208.078 372.281C205.172 373.75 201.703 374.484 197.672 374.484C196.328 374.484 195.094 374.422 193.969 374.297C192.812 374.203 191.547 374 190.172 373.688V361.734C190.984 361.859 191.734 361.953 192.422 362.016C193.109 362.109 193.859 362.156 194.672 362.156C196.109 362.156 197.312 361.922 198.281 361.453C199.25 360.984 199.984 360.266 200.484 359.297C201.016 358.328 201.281 357.109 201.281 355.641V303.281ZM200.109 290.203C200.109 287.953 200.922 286.109 202.547 284.672C204.172 283.234 206.281 282.516 208.875 282.516C211.469 282.516 213.578 283.234 215.203 284.672C216.828 286.109 217.641 287.953 217.641 290.203C217.641 292.453 216.828 294.297 215.203 295.734C213.578 297.172 211.469 297.891 208.875 297.891C206.281 297.891 204.172 297.172 202.547 295.734C200.922 294.297 200.109 292.453 200.109 290.203ZM252.422 341.25V320.344C252.422 318.906 252.219 317.672 251.812 316.641C251.406 315.609 250.766 314.812 249.891 314.25C249.016 313.656 247.844 313.359 246.375 313.359C245.188 313.359 244.172 313.562 243.328 313.969C242.484 314.375 241.844 314.984 241.406 315.797C240.969 316.609 240.75 317.641 240.75 318.891H224.953C224.953 316.547 225.469 314.375 226.5 312.375C227.562 310.344 229.062 308.578 231 307.078C232.969 305.578 235.312 304.422 238.031 303.609C240.781 302.766 243.844 302.344 247.219 302.344C251.25 302.344 254.844 303.016 258 304.359C261.188 305.703 263.703 307.719 265.547 310.406C267.391 313.062 268.312 316.406 268.312 320.438V341.203C268.312 344.516 268.5 347.031 268.875 348.75C269.25 350.438 269.781 351.922 270.469 353.203V354H254.625C253.875 352.438 253.312 350.531 252.938 348.281C252.594 346 252.422 343.656 252.422 341.25ZM254.344 323.016L254.438 331.453H247.453C245.984 331.453 244.734 331.656 243.703 332.062C242.703 332.469 241.891 333.031 241.266 333.75C240.672 334.438 240.234 335.219 239.953 336.094C239.703 336.969 239.578 337.891 239.578 338.859C239.578 339.797 239.797 340.641 240.234 341.391C240.703 342.109 241.328 342.672 242.109 343.078C242.891 343.484 243.766 343.688 244.734 343.688C246.484 343.688 247.969 343.359 249.188 342.703C250.438 342.016 251.391 341.188 252.047 340.219C252.703 339.25 253.031 338.344 253.031 337.5L256.5 343.969C255.875 345.219 255.156 346.484 254.344 347.766C253.562 349.047 252.578 350.234 251.391 351.328C250.234 352.391 248.812 353.266 247.125 353.953C245.438 354.609 243.391 354.938 240.984 354.938C237.859 354.938 234.984 354.297 232.359 353.016C229.766 351.734 227.688 349.953 226.125 347.672C224.562 345.359 223.781 342.703 223.781 339.703C223.781 337.078 224.25 334.734 225.188 332.672C226.156 330.609 227.609 328.859 229.547 327.422C231.484 325.984 233.953 324.891 236.953 324.141C239.953 323.391 243.484 323.016 247.547 323.016H254.344ZM278.109 346.594C278.109 344.344 278.922 342.469 280.547 340.969C282.172 339.438 284.266 338.672 286.828 338.672C289.422 338.672 291.516 339.438 293.109 340.969C294.734 342.469 295.547 344.344 295.547 346.594C295.547 348.844 294.734 350.734 293.109 352.266C291.516 353.766 289.422 354.516 286.828 354.516C284.266 354.516 282.172 353.766 280.547 352.266C278.922 350.734 278.109 348.844 278.109 346.594ZM330.703 354.938C326.578 354.938 322.891 354.297 319.641 353.016C316.391 351.703 313.641 349.906 311.391 347.625C309.172 345.344 307.469 342.719 306.281 339.75C305.125 336.781 304.547 333.641 304.547 330.328V328.547C304.547 324.828 305.062 321.391 306.094 318.234C307.125 315.047 308.656 312.266 310.688 309.891C312.719 307.516 315.266 305.672 318.328 304.359C321.391 303.016 324.953 302.344 329.016 302.344C332.609 302.344 335.828 302.922 338.672 304.078C341.516 305.234 343.922 306.891 345.891 309.047C347.891 311.203 349.406 313.812 350.438 316.875C351.5 319.938 352.031 323.375 352.031 327.188V333.609H310.594V323.719H336.609V322.5C336.641 320.812 336.344 319.375 335.719 318.188C335.125 317 334.25 316.094 333.094 315.469C331.938 314.844 330.531 314.531 328.875 314.531C327.156 314.531 325.734 314.906 324.609 315.656C323.516 316.406 322.656 317.438 322.031 318.75C321.438 320.031 321.016 321.516 320.766 323.203C320.516 324.891 320.391 326.672 320.391 328.547V330.328C320.391 332.203 320.641 333.906 321.141 335.438C321.672 336.969 322.422 338.281 323.391 339.375C324.391 340.438 325.578 341.266 326.953 341.859C328.359 342.453 329.953 342.75 331.734 342.75C333.891 342.75 336.016 342.344 338.109 341.531C340.203 340.719 342 339.375 343.5 337.5L350.672 346.031C349.641 347.5 348.172 348.922 346.266 350.297C344.391 351.672 342.141 352.797 339.516 353.672C336.891 354.516 333.953 354.938 330.703 354.938ZM385.031 339.75C385.031 338.875 384.734 338.125 384.141 337.5C383.578 336.844 382.578 336.25 381.141 335.719C379.703 335.156 377.688 334.594 375.094 334.031C372.625 333.5 370.297 332.797 368.109 331.922C365.953 331.047 364.062 329.984 362.438 328.734C360.812 327.484 359.531 326 358.594 324.281C357.688 322.562 357.234 320.594 357.234 318.375C357.234 316.219 357.688 314.188 358.594 312.281C359.531 310.344 360.891 308.641 362.672 307.172C364.484 305.672 366.688 304.5 369.281 303.656C371.875 302.781 374.828 302.344 378.141 302.344C382.703 302.344 386.641 303.047 389.953 304.453C393.266 305.828 395.812 307.766 397.594 310.266C399.406 312.734 400.312 315.594 400.312 318.844H384.516C384.516 317.562 384.297 316.469 383.859 315.562C383.453 314.656 382.781 313.969 381.844 313.5C380.906 313 379.656 312.75 378.094 312.75C377 312.75 376 312.953 375.094 313.359C374.219 313.766 373.516 314.328 372.984 315.047C372.453 315.766 372.188 316.609 372.188 317.578C372.188 318.266 372.344 318.891 372.656 319.453C373 319.984 373.516 320.484 374.203 320.953C374.891 321.391 375.766 321.797 376.828 322.172C377.891 322.516 379.172 322.828 380.672 323.109C384.078 323.734 387.266 324.625 390.234 325.781C393.203 326.938 395.609 328.578 397.453 330.703C399.328 332.828 400.266 335.688 400.266 339.281C400.266 341.531 399.75 343.609 398.719 345.516C397.688 347.391 396.203 349.047 394.266 350.484C392.328 351.891 390 352.984 387.281 353.766C384.562 354.547 381.5 354.938 378.094 354.938C373.25 354.938 369.156 354.078 365.812 352.359C362.469 350.609 359.938 348.422 358.219 345.797C356.531 343.141 355.688 340.453 355.688 337.734H370.406C370.469 339.297 370.844 340.578 371.531 341.578C372.25 342.578 373.203 343.312 374.391 343.781C375.578 344.25 376.953 344.484 378.516 344.484C379.953 344.484 381.141 344.281 382.078 343.875C383.047 343.469 383.781 342.922 384.281 342.234C384.781 341.516 385.031 340.688 385.031 339.75ZM434.391 303.281V314.25H403.828V303.281H434.391ZM410.25 290.672H426.047V337.453C426.047 338.797 426.203 339.844 426.516 340.594C426.828 341.312 427.359 341.828 428.109 342.141C428.891 342.422 429.922 342.562 431.203 342.562C432.109 342.562 432.859 342.547 433.453 342.516C434.047 342.453 434.609 342.375 435.141 342.281V353.578C433.797 354.016 432.391 354.344 430.922 354.562C429.453 354.812 427.891 354.938 426.234 354.938C422.859 354.938 419.969 354.406 417.562 353.344C415.188 352.281 413.375 350.609 412.125 348.328C410.875 346.047 410.25 343.078 410.25 339.422V290.672ZM470.297 341.672V303.281H486.141V354H471.328L470.297 341.672ZM471.797 331.359L475.922 331.266C475.922 334.672 475.516 337.828 474.703 340.734C473.891 343.609 472.688 346.109 471.094 348.234C469.531 350.359 467.594 352.016 465.281 353.203C463 354.359 460.359 354.938 457.359 354.938C454.859 354.938 452.562 354.594 450.469 353.906C448.406 353.188 446.625 352.078 445.125 350.578C443.625 349.047 442.453 347.094 441.609 344.719C440.797 342.312 440.391 339.438 440.391 336.094V303.281H456.188V336.188C456.188 337.312 456.328 338.281 456.609 339.094C456.891 339.906 457.297 340.594 457.828 341.156C458.359 341.688 459.016 342.094 459.797 342.375C460.609 342.625 461.531 342.75 462.562 342.75C464.938 342.75 466.797 342.25 468.141 341.25C469.484 340.25 470.422 338.891 470.953 337.172C471.516 335.453 471.797 333.516 471.797 331.359ZM524.016 342.375V282H539.906V354H525.656L524.016 342.375ZM492.891 329.25V328.266C492.891 324.422 493.312 320.922 494.156 317.766C495 314.578 496.25 311.844 497.906 309.562C499.562 307.25 501.625 305.469 504.094 304.219C506.562 302.969 509.406 302.344 512.625 302.344C515.5 302.344 518.016 303.016 520.172 304.359C522.328 305.672 524.172 307.516 525.703 309.891C527.234 312.266 528.484 315.047 529.453 318.234C530.422 321.391 531.156 324.797 531.656 328.453V329.625C531.156 333.062 530.422 336.312 529.453 339.375C528.484 342.406 527.234 345.094 525.703 347.438C524.172 349.781 522.312 351.625 520.125 352.969C517.969 354.281 515.438 354.938 512.531 354.938C509.312 354.938 506.469 354.297 504 353.016C501.562 351.734 499.516 349.938 497.859 347.625C496.234 345.312 495 342.594 494.156 339.469C493.312 336.344 492.891 332.938 492.891 329.25ZM508.688 328.266V329.25C508.688 331.156 508.812 332.922 509.062 334.547C509.312 336.172 509.734 337.609 510.328 338.859C510.953 340.078 511.766 341.031 512.766 341.719C513.797 342.406 515.062 342.75 516.562 342.75C518.594 342.75 520.266 342.266 521.578 341.297C522.922 340.328 523.906 338.953 524.531 337.172C525.188 335.391 525.469 333.297 525.375 330.891V327.188C525.438 325.125 525.297 323.312 524.953 321.75C524.609 320.156 524.062 318.828 523.312 317.766C522.594 316.703 521.672 315.906 520.547 315.375C519.453 314.812 518.156 314.531 516.656 314.531C515.188 314.531 513.938 314.875 512.906 315.562C511.906 316.25 511.094 317.219 510.469 318.469C509.844 319.688 509.391 321.141 509.109 322.828C508.828 324.484 508.688 326.297 508.688 328.266ZM565.547 303.281V354H549.703V303.281H565.547ZM548.766 290.203C548.766 287.953 549.578 286.109 551.203 284.672C552.828 283.234 554.938 282.516 557.531 282.516C560.125 282.516 562.234 283.234 563.859 284.672C565.484 286.109 566.297 287.953 566.297 290.203C566.297 292.453 565.484 294.297 563.859 295.734C562.234 297.172 560.125 297.891 557.531 297.891C554.938 297.891 552.828 297.172 551.203 295.734C549.578 294.297 548.766 292.453 548.766 290.203ZM573.328 329.156V328.172C573.328 324.453 573.859 321.031 574.922 317.906C575.984 314.75 577.547 312.016 579.609 309.703C581.672 307.391 584.219 305.594 587.25 304.312C590.281 303 593.781 302.344 597.75 302.344C601.75 302.344 605.266 303 608.297 304.312C611.359 305.594 613.922 307.391 615.984 309.703C618.047 312.016 619.609 314.75 620.672 317.906C621.734 321.031 622.266 324.453 622.266 328.172V329.156C622.266 332.844 621.734 336.266 620.672 339.422C619.609 342.547 618.047 345.281 615.984 347.625C613.922 349.938 611.375 351.734 608.344 353.016C605.312 354.297 601.812 354.938 597.844 354.938C593.875 354.938 590.359 354.297 587.297 353.016C584.234 351.734 581.672 349.938 579.609 347.625C577.547 345.281 575.984 342.547 574.922 339.422C573.859 336.266 573.328 332.844 573.328 329.156ZM589.125 328.172V329.156C589.125 331.062 589.266 332.844 589.547 334.5C589.828 336.156 590.297 337.609 590.953 338.859C591.609 340.078 592.5 341.031 593.625 341.719C594.75 342.406 596.156 342.75 597.844 342.75C599.5 342.75 600.875 342.406 601.969 341.719C603.094 341.031 603.984 340.078 604.641 338.859C605.297 337.609 605.766 336.156 606.047 334.5C606.328 332.844 606.469 331.062 606.469 329.156V328.172C606.469 326.328 606.328 324.594 606.047 322.969C605.766 321.312 605.297 319.859 604.641 318.609C603.984 317.328 603.094 316.328 601.969 315.609C600.844 314.891 599.438 314.531 597.75 314.531C596.094 314.531 594.703 314.891 593.578 315.609C592.484 316.328 591.609 317.328 590.953 318.609C590.297 319.859 589.828 321.312 589.547 322.969C589.266 324.594 589.125 326.328 589.125 328.172Z" fill="#102A19"/>
</svg>
