<svg width="122" height="126" viewBox="0 0 122 126" fill="none" xmlns="http://www.w3.org/2000/svg">
<path d="M1.52019 60.0017C1.68008 27.1411 28.4484 0.632041 61.309 0.791928C94.1695 0.951816 120.679 27.7202 120.519 60.5807L120.495 65.4285C120.335 98.2891 93.5669 124.798 60.7064 124.638L8.70701 124.385C4.56493 124.365 1.22344 120.991 1.2436 116.849L1.52019 60.0017Z" fill="#084324" fill-opacity="0.98" stroke="#FFF0D5"/>
<path d="M23.3944 51.376L23.6705 50.4816L22.254 50.5952C21.9661 49.0862 20.8605 47.8263 19.233 47.3216C16.8948 46.5966 14.531 47.7859 13.8091 50.125C13.0908 52.4527 14.3453 54.7765 16.7064 55.5086C19.0904 56.2478 21.4084 55.0443 22.1267 52.7167C22.2577 52.2924 22.3127 51.8698 22.3264 51.4594L23.3944 51.376ZM21.2592 52.4351C20.7107 54.2124 18.9063 55.1354 17.0037 54.5454C15.1239 53.9626 14.1317 52.1724 14.6802 50.3951C15.2287 48.6179 17.056 47.7019 18.9357 48.2848C20.185 48.6722 21.0361 49.5768 21.3182 50.6568L19.3143 50.8018L19.0348 51.7077L21.4135 51.5281C21.4088 51.8282 21.3512 52.137 21.2592 52.4351Z" fill="#FFF0D5"/>
<path d="M26.6301 41.2178C27.7427 39.5655 27.316 37.9004 25.7456 36.8379L21.2931 33.8252L20.7569 34.6215L25.1995 37.6274C26.3623 38.4142 26.6756 39.5389 25.8847 40.7135C25.0938 41.888 23.9427 42.0075 22.7898 41.2275L18.3373 38.2148L17.7943 39.0211L22.2569 42.0404C23.8371 43.1096 25.504 42.89 26.6301 41.2178Z" fill="#FFF0D5"/>
<path d="M31.2685 34.2741L34.9109 30.9667L34.3236 30.3167L31.4008 32.9707L29.4135 30.7716L31.8477 28.5613L31.2604 27.9114L28.8262 30.1217L26.9516 28.0472L29.7767 25.4819L29.1813 24.8231L25.6366 28.0417L31.2685 34.2741Z" fill="#FFF0D5"/>
<path d="M37.6352 28.3806L38.4818 27.903L36.8192 24.9418L38.0525 24.246L41.544 26.1753L42.5683 25.5975L38.8997 23.6715C39.9214 22.8196 40.0354 21.6254 39.4244 20.5372C38.7077 19.2607 37.3376 18.9039 35.8431 19.747L33.5228 21.056L37.6352 28.3806ZM36.3962 24.1884L34.7924 21.3318L36.2138 20.5299C37.2485 19.9462 38.1177 20.2687 38.5524 21.043C39.0929 22.0056 38.7269 22.8735 37.8699 23.357L36.3962 24.1884Z" fill="#FFF0D5"/>
<path d="M49.1573 22.783C51.5368 22.2081 52.8927 19.9423 52.3148 17.5388C51.7425 15.1586 49.5119 13.7347 47.1323 14.3096C44.7645 14.8817 43.4086 17.1475 43.9865 19.551C44.57 21.9779 46.7894 23.3551 49.1573 22.783ZM48.9558 21.8935C47.1478 22.3303 45.4319 21.2511 44.9663 19.3143C44.5062 17.4008 45.5376 15.6332 47.3455 15.1963C49.1535 14.7595 50.8749 15.862 51.335 17.7755C51.8007 19.7123 50.7637 21.4566 48.9558 21.8935Z" fill="#FFF0D5"/>
<path d="M68.161 21.1985L69.1694 21.3519L67.366 12.581L66.0017 12.3735L61.6479 20.2078L62.6563 20.3612L63.6782 18.5017L67.7355 19.1189L68.161 21.1985ZM64.1314 17.6725L66.4976 13.3471L66.5687 13.3579L67.5481 18.1922L64.1314 17.6725Z" fill="#FFF0D5"/>
<path d="M73.3065 22.121L77.568 23.8424L77.8947 23.0296L74.5345 21.6723L77.3411 14.6913L76.4398 14.3273L73.3065 22.121Z" fill="#FFF0D5"/>
<path d="M83.1929 26.7982C84.8125 27.9579 86.4845 27.5759 87.5848 26.0318L90.7047 21.6537L89.9242 21.0948L86.8113 25.4632C85.9965 26.6066 84.8665 26.8896 83.7152 26.0652C82.5639 25.2409 82.4743 24.0846 83.2821 22.951L86.402 18.5728L85.6117 18.007L82.4849 22.3949C81.3776 23.9487 81.5537 25.6245 83.1929 26.7982Z" fill="#FFF0D5"/>
<path d="M92.0256 34.1056C93.1959 35.6125 95.1861 36.4339 97.8056 34.8768L95.5238 31.9388L94.8522 32.4629L96.4273 34.4911C94.8453 35.193 93.5468 34.5776 92.7519 33.554C91.611 32.085 91.8872 30.0733 93.4576 28.8478C95.009 27.6371 97.0265 27.8284 98.1673 29.2974C98.9623 30.3209 99.0498 31.6074 98.4612 32.6299L99.1237 33.4829C100.034 32.0724 100.035 30.2148 98.8863 28.7363C97.3921 26.8124 94.7881 26.5309 92.8393 28.0517C90.8715 29.5873 90.5314 32.1817 92.0256 34.1056Z" fill="#FFF0D5"/>
<path d="M99.7424 46.3577L100.124 47.3036L106.75 41.2763L106.234 39.9965L97.2774 40.2482L97.659 41.1941L99.779 41.1245L101.315 44.9304L99.7424 46.3577ZM100.723 41.0913L105.649 40.92L105.676 40.9868L102.016 44.2963L100.723 41.0913Z" fill="#FFF0D5"/>
<path d="M101.624 51.1056L101.755 52.0687L105.12 51.6066L105.311 53.0095L102.231 55.5523L102.391 56.7175L105.533 54.0087C105.948 55.272 107.015 55.8158 108.252 55.646C109.702 55.4468 110.539 54.3023 110.306 52.6021L109.946 49.9626L101.624 51.1056ZM105.976 51.489L109.221 51.0433L109.442 52.6602C109.603 53.8373 108.983 54.5281 108.103 54.6489C107.009 54.7991 106.338 54.1404 106.205 53.1654L105.976 51.489Z" fill="#FFF0D5"/>
<path d="M102.182 67.6182C101.756 69.5641 102.766 70.9536 104.618 71.361L109.868 72.516L110.074 71.5782L104.835 70.4258C103.464 70.1241 102.758 69.1948 103.061 67.8116C103.364 66.4283 104.39 65.8923 105.75 66.1914L111 67.3465L111.208 66.397L105.946 65.2393C104.082 64.8294 102.613 65.6489 102.182 67.6182Z" fill="#FFF0D5"/>
<path d="M101.07 75.3977L100.602 76.2082L107.099 79.9787L107.063 80.0411L99.3477 78.38L98.6755 79.5438L103.954 85.4238L103.918 85.4861L97.4212 81.7156L96.953 82.5261L104.218 86.7424L105.052 85.298L99.7617 79.4388L99.7977 79.3764L107.501 81.0583L108.335 79.6139L101.07 75.3977Z" fill="#FFF0D5"/>
<path d="M90.9687 90.8425L87.9848 93.1039C86.8563 93.9592 86.4465 95.3689 87.357 96.576C88.0724 97.5245 89.0649 97.5252 89.63 97.3378L89.6733 97.3953C89.3545 98.0886 89.4147 98.826 89.9133 99.487C90.6503 100.464 91.9623 100.629 93.2342 99.6653L96.0268 97.5489L95.5282 96.8878L94.897 97.3662L90.8361 91.9819L91.4673 91.5036L90.9687 90.8425ZM92.4315 95.7114L94.1007 97.9245L92.714 98.9755C91.9967 99.5191 91.1623 99.489 90.6637 98.8279C90.1507 98.1477 90.3179 97.3133 91.0735 96.7407L92.4315 95.7114ZM90.0759 92.5882L91.9401 95.06L90.5821 96.0892C89.8074 96.6763 88.8396 96.8678 88.1748 95.9864C87.5245 95.1241 87.8379 94.2843 88.6317 93.6827L90.0759 92.5882Z" fill="#FFF0D5"/>
<path d="M79.4046 98.5359C77.1169 99.4071 76.0575 101.827 76.9335 104.138C77.801 106.427 80.1929 107.558 82.4807 106.687C84.7572 105.82 85.8166 103.4 84.9406 101.089C84.056 98.7549 81.6811 97.669 79.4046 98.5359ZM79.7166 99.393C81.4548 98.7311 83.2926 99.5849 83.9985 101.448C84.696 103.288 83.8957 105.172 82.1575 105.834C80.4193 106.496 78.5729 105.62 77.8755 103.779C77.1696 101.917 77.9783 100.055 79.7166 99.393Z" fill="#FFF0D5"/>
<path d="M71.7923 101.729L70.6578 101.841L68.7546 105.538L68.6829 105.545L66.0602 102.296L64.9138 102.409L68.1491 106.37L65.8554 110.757L66.9899 110.645L68.8106 107.088L68.8822 107.081L71.3487 110.214L72.4712 110.103L69.391 106.247L71.7923 101.729Z" fill="#FFF0D5"/>
<path d="M62.114 72.0811C61.6738 72.2296 61.1969 71.9931 61.0484 71.5531L58.818 64.9412C58.6696 64.5013 58.9057 64.0242 59.3459 63.8757C59.7859 63.7273 60.2628 63.9638 60.4112 64.4038L62.6417 71.0157C62.7129 71.2269 62.6974 71.458 62.5984 71.6578C62.4994 71.8576 62.3252 72.0099 62.114 72.0811L62.114 72.0811Z" fill="#FFF0D5"/>
<path d="M66.4157 70.6299C65.9758 70.7783 65.4986 70.5419 65.3502 70.1019L63.1197 63.49C62.9713 63.0501 63.2078 62.5729 63.6477 62.4245C64.0876 62.2761 64.5645 62.5126 64.7129 62.9526L66.9434 69.5645C67.0147 69.7757 66.9991 70.0068 66.9001 70.2066C66.8012 70.4064 66.627 70.5586 66.4157 70.6299L66.4157 70.6299Z" fill="#FFF0D5"/>
<path d="M70.7178 69.1787C70.2779 69.3271 69.8007 69.0906 69.6523 68.6507L67.4219 62.0388C67.2734 61.5988 67.5099 61.1217 67.9498 60.9733C68.3898 60.8248 68.8667 61.0614 69.0151 61.5013L71.2455 68.1132C71.3168 68.3245 71.3013 68.5556 71.2023 68.7554C71.1033 68.9551 70.9291 69.1074 70.7178 69.1787L70.7178 69.1787Z" fill="#FFF0D5"/>
<path d="M72.552 56.2054C72.2024 55.422 71.9501 54.7262 71.8855 54.5349C71.0481 52.0525 69.0023 51.2483 67.4822 51.7611L67.4823 51.7614C66.8793 51.9539 66.3235 52.2719 65.8523 52.6947C65.0715 51.748 63.8093 50.9314 62.1619 51.4872C61.3094 51.7374 60.5405 52.2139 59.9368 52.8659C59.4886 52.4712 58.9433 52.2031 58.3574 52.0889C57.7712 51.9746 57.1652 52.0187 56.6016 52.2164C55.9604 52.4188 55.3714 52.7592 54.876 53.2136L52.5284 46.2544C51.7329 43.8964 49.9638 42.8604 47.8925 43.5591C45.8212 44.2579 44.9627 46.2264 45.6904 48.3836L50.4826 62.5893C49.0253 61.573 47.195 61.2484 45.4767 61.7014C43.7396 62.1596 42.2798 63.4293 42.1595 64.588C42.1227 64.8552 42.1707 65.1271 42.2969 65.3653C42.4232 65.6039 42.6211 65.7964 42.863 65.9158C44.4914 66.7551 45.834 68.0585 46.7211 69.6613C46.7488 69.7184 46.7825 69.7723 46.8216 69.8226C51.1109 75.2363 54.5066 77.3167 56.9948 78.401C57.4738 78.6492 57.8333 79.0786 57.9935 79.5939L58.9609 82.4617C59.0592 82.754 59.3096 82.9689 59.6132 83.0219C59.9167 83.075 60.2251 82.9576 60.4165 82.716C61.8298 80.9189 73.3544 77.0384 75.6515 77.5766L75.6518 77.5765C75.8971 77.6359 76.1557 77.5817 76.3568 77.4292C76.5578 77.277 76.6796 77.0422 76.689 76.7901C76.6825 76.771 76.2366 74.5862 76.8079 71.1778C77.2641 68.4792 75.2895 62.299 72.5523 56.2057L72.552 56.2054ZM75.1586 70.9177C74.7692 73.2246 75.1377 74.8642 75.0574 75.878C73.3409 75.8926 70.5954 76.5386 67.9408 77.4341C65.4871 78.2619 61.577 79.8223 60.1576 80.7695L59.5836 79.0678C59.2826 78.1757 59.1015 77.502 57.6658 76.8755C55.3298 75.832 52.2003 73.8781 48.1921 68.8454C47.1971 67.0477 45.7135 65.5684 43.9131 64.5782C44.4533 63.9081 45.2135 63.4516 46.0588 63.29C48.012 62.8512 49.9913 63.8481 51.6479 66.086L52.5176 68.664L52.5175 68.6637C52.6659 69.1037 53.1428 69.3402 53.583 69.1917C54.0229 69.0433 54.2591 68.5662 54.1107 68.1263L47.2708 47.8503C46.9332 46.8497 47.0597 45.6145 48.4299 45.1522C49.593 44.7599 50.4363 45.313 50.935 46.7915L55.4798 60.2647C55.6282 60.7046 56.1053 60.9408 56.5452 60.7924C56.9852 60.644 57.2217 60.1671 57.0733 59.7271L55.5382 55.1767C55.6288 54.8872 55.9621 54.2031 57.138 53.8064C58.3902 53.384 59.1683 54.4169 59.3521 54.6992L60.2809 57.4525C60.4293 57.8925 60.9064 58.1286 61.3463 57.9802C61.7863 57.8318 62.0225 57.355 61.8741 56.9151L60.9927 54.3022C61.0928 54.0626 61.4343 53.5071 62.7088 53.0772C64.1205 52.601 64.9465 54.3133 65.041 54.5195L65.7128 56.5112L65.713 56.5109C65.8614 56.9508 66.3383 57.1873 66.7783 57.0389C67.2182 56.8905 67.4547 56.4133 67.3062 55.9734L66.7225 54.2431C67.044 53.801 67.5095 53.4845 68.0391 53.3481C69.1863 52.9611 70.0663 54.3395 70.3114 55.0659L70.3115 55.0662C70.5201 55.6846 70.7616 56.2915 71.0347 56.8842C72.404 59.975 75.5777 68.331 75.1585 70.9175L75.1586 70.9177Z" fill="#FFF0D5"/>
</svg>
