<svg width="34" height="34" viewBox="0 0 34 34" fill="none" xmlns="http://www.w3.org/2000/svg">
<path d="M0 18.1967V15.8167C0.0509902 15.4359 0.0951027 15.0516 0.149648 14.671C0.602394 11.3585 2.03367 8.25719 4.26018 5.76306C6.79525 2.8483 10.2635 0.904061 14.0728 0.261829C14.6916 0.152969 15.3002 0.0849024 15.9393 0H18.0643C18.1615 0.0270365 18.2602 0.0474328 18.36 0.0611875C21.0381 0.246177 23.6282 1.09308 25.8977 2.52629C27.9525 3.77306 29.7156 5.44627 31.0681 7.43271C32.4209 9.41945 33.3314 11.6732 33.7382 14.042C33.847 14.6269 33.9149 15.2184 34 15.8065V18.1864C33.949 18.5673 33.9082 18.9515 33.8503 19.3322C33.3696 22.8334 31.7981 26.0945 29.3589 28.6517C26.76 31.4491 23.279 33.2689 19.4989 33.8062C19.0196 33.8776 18.54 33.9355 18.0607 34H15.939C15.5344 33.9523 15.1298 33.9082 14.7285 33.8539H14.7288C11.1642 33.3637 7.84559 31.759 5.24823 29.2693C2.65057 26.7798 0.906434 23.5325 0.26517 19.9922C0.156309 19.3801 0.0884792 18.7952 1.85285e-05 18.1969L0 18.1967ZM15.9156 16.1941V9.60176L10.2376 9.26166C9.50572 11.4974 9.10805 13.829 9.05772 16.1806H15.9154L15.9156 16.1941ZM23.7593 9.27147L18.078 9.61157V16.1839H24.9424C24.8883 13.8345 24.4899 11.5055 23.7592 9.27157L23.7593 9.27147ZM10.2376 24.7244L15.9189 24.3843V18.3596H9.07824C9.17192 20.5242 9.56206 22.6658 10.2378 24.7243L10.2376 24.7244ZM24.888 18.3597H18.088V24.3948L23.7387 24.7349C24.2962 23.4597 25.0001 19.5633 24.888 18.36V18.3597ZM8.03735 8.97944C7.01729 8.78568 6.02783 8.59191 5.02841 8.42187C4.90841 8.44155 4.80311 8.51223 4.73931 8.61563C3.57675 10.2879 2.78055 12.1868 2.4037 14.1883C2.278 14.8412 2.22345 15.5074 2.13499 16.1774H6.89486C7.17377 12.4646 7.17377 12.4646 8.03726 8.97973L8.03735 8.97944ZM27.0773 16.1838H31.8372C31.7523 15.5377 31.6911 14.9156 31.5823 14.3002C31.2068 12.2404 30.3955 10.2848 29.2023 8.5644C29.1286 8.42684 28.963 8.3666 28.8181 8.42518C28.478 8.50677 28.1382 8.56796 27.7812 8.63247L25.9046 8.97256H25.9043C26.6201 11.3127 27.0202 13.7379 27.0944 16.1836L27.0773 16.1838ZM8.03735 25.0237C7.38279 22.8515 7.00236 20.606 6.90515 18.3391H2.14528C2.24394 18.9341 2.31865 19.5121 2.43438 20.0799C2.834 21.9858 3.60835 23.7934 4.71238 25.3976C4.78661 25.5468 4.95785 25.62 5.11698 25.5709C5.45708 25.486 5.79692 25.4282 6.13704 25.367L8.03735 25.0237ZM25.928 25.0237C26.9481 25.2208 27.9681 25.4148 28.954 25.5846C29.0728 25.5642 29.177 25.4935 29.2398 25.3908C30.1712 24.0596 30.8615 22.575 31.2797 21.005C31.5076 20.1379 31.6468 19.2507 31.8339 18.3461H27.0705C26.9766 20.607 26.5985 22.847 25.9451 25.0137L25.928 25.0237ZM11.104 26.7951C11.8962 29.0187 14.504 31.6401 15.9218 31.6707V26.5468L11.104 26.7951ZM18.0807 7.44921L22.8952 7.2009C22.1201 4.99789 19.4816 2.34925 18.0776 2.32885V7.44922L18.0807 7.44921ZM15.9218 2.25416C13.4704 3.09729 12.1816 5.015 11.053 7.19785L15.9218 7.44948V2.25416ZM22.9464 26.7984L18.0743 26.5501L18.0741 31.7454C20.5254 30.9124 21.8004 28.9881 22.9464 26.7984L22.9464 26.7984ZM27.5398 6.52781C26.3068 5.28979 24.866 4.2783 23.2829 3.53929C23.657 4.13433 24.0073 4.65442 24.303 5.19848C24.5987 5.74253 24.8912 6.32739 25.1905 6.89847L27.5398 6.52781ZM10.6861 30.423C10.346 29.8621 9.97893 29.3417 9.66607 28.7977C9.35325 28.2536 9.08122 27.6688 8.78213 27.0977L6.49066 27.4819C7.26573 28.4102 9.55387 30.0217 10.6861 30.4229V30.423ZM10.6318 3.56315V3.56291C9.08148 4.30478 7.67036 5.30771 6.45984 6.52769L8.74112 6.90502L10.6318 3.56315ZM23.3168 30.3854C24.8824 29.6983 26.3037 28.7212 27.5056 27.5054C27.4378 27.4734 27.3671 27.4473 27.2948 27.4274C26.7066 27.3288 26.1149 27.2609 25.5336 27.1317V27.1314C25.429 27.0937 25.3133 27.103 25.216 27.1573C25.119 27.2114 25.05 27.3048 25.027 27.4137C24.7073 28.0666 24.3471 28.7091 24.007 29.3416C23.7997 29.7054 23.548 30.0386 23.3168 30.3853L23.3168 30.3854Z" fill="#044223"/>
</svg>
